<mxfile host="app.diagrams.net" modified="2022-01-25T13:11:16.288Z" agent="5.0 (Windows NT 10.0; Win64; x64) AppleWebKit/537.36 (KHTML, like Gecko) Chrome/97.0.4692.99 Safari/537.36" etag="lxFKWyFqlmM_tkOBPsS3" version="16.4.6" type="github">
  <diagram id="Sc2849mtXp3XQ9-_qFDR" name="Page-1">
    <mxGraphModel dx="2692" dy="617" grid="0" gridSize="10" guides="1" tooltips="1" connect="1" arrows="1" fold="1" page="1" pageScale="1" pageWidth="827" pageHeight="1169" math="0" shadow="0">
      <root>
        <mxCell id="0" />
        <mxCell id="1" parent="0" />
        <mxCell id="NzXf4oYJLNEPJ9zHogkz-10" style="edgeStyle=orthogonalEdgeStyle;rounded=0;orthogonalLoop=1;jettySize=auto;html=1;exitX=1;exitY=0.5;exitDx=0;exitDy=0;entryX=0;entryY=0.5;entryDx=0;entryDy=0;" edge="1" parent="1" source="NzXf4oYJLNEPJ9zHogkz-1" target="NzXf4oYJLNEPJ9zHogkz-8">
          <mxGeometry relative="1" as="geometry" />
        </mxCell>
        <mxCell id="NzXf4oYJLNEPJ9zHogkz-11" style="edgeStyle=orthogonalEdgeStyle;rounded=0;orthogonalLoop=1;jettySize=auto;html=1;exitX=0.75;exitY=0;exitDx=0;exitDy=0;" edge="1" parent="1" source="NzXf4oYJLNEPJ9zHogkz-1" target="NzXf4oYJLNEPJ9zHogkz-7">
          <mxGeometry relative="1" as="geometry" />
        </mxCell>
        <mxCell id="NzXf4oYJLNEPJ9zHogkz-12" style="edgeStyle=orthogonalEdgeStyle;rounded=0;orthogonalLoop=1;jettySize=auto;html=1;exitX=0.5;exitY=0;exitDx=0;exitDy=0;" edge="1" parent="1" source="NzXf4oYJLNEPJ9zHogkz-1">
          <mxGeometry relative="1" as="geometry">
            <mxPoint x="-436.86956521739125" y="61.2173355765965" as="targetPoint" />
          </mxGeometry>
        </mxCell>
        <mxCell id="NzXf4oYJLNEPJ9zHogkz-13" style="edgeStyle=orthogonalEdgeStyle;rounded=0;orthogonalLoop=1;jettySize=auto;html=1;exitX=0;exitY=0.25;exitDx=0;exitDy=0;" edge="1" parent="1" source="NzXf4oYJLNEPJ9zHogkz-1" target="NzXf4oYJLNEPJ9zHogkz-2">
          <mxGeometry relative="1" as="geometry" />
        </mxCell>
        <mxCell id="NzXf4oYJLNEPJ9zHogkz-14" style="edgeStyle=orthogonalEdgeStyle;rounded=0;orthogonalLoop=1;jettySize=auto;html=1;exitX=0;exitY=0.5;exitDx=0;exitDy=0;entryX=1;entryY=0.5;entryDx=0;entryDy=0;" edge="1" parent="1" source="NzXf4oYJLNEPJ9zHogkz-1" target="NzXf4oYJLNEPJ9zHogkz-3">
          <mxGeometry relative="1" as="geometry" />
        </mxCell>
        <mxCell id="NzXf4oYJLNEPJ9zHogkz-17" style="edgeStyle=orthogonalEdgeStyle;rounded=0;orthogonalLoop=1;jettySize=auto;html=1;exitX=0;exitY=0.75;exitDx=0;exitDy=0;entryX=1;entryY=0.25;entryDx=0;entryDy=0;" edge="1" parent="1" source="NzXf4oYJLNEPJ9zHogkz-1" target="NzXf4oYJLNEPJ9zHogkz-15">
          <mxGeometry relative="1" as="geometry" />
        </mxCell>
        <mxCell id="NzXf4oYJLNEPJ9zHogkz-18" style="edgeStyle=orthogonalEdgeStyle;rounded=0;orthogonalLoop=1;jettySize=auto;html=1;exitX=0.25;exitY=1;exitDx=0;exitDy=0;entryX=1;entryY=0.75;entryDx=0;entryDy=0;" edge="1" parent="1" source="NzXf4oYJLNEPJ9zHogkz-1" target="NzXf4oYJLNEPJ9zHogkz-16">
          <mxGeometry relative="1" as="geometry">
            <Array as="points">
              <mxPoint x="-431" y="188" />
              <mxPoint x="-527" y="188" />
            </Array>
          </mxGeometry>
        </mxCell>
        <mxCell id="NzXf4oYJLNEPJ9zHogkz-21" style="edgeStyle=orthogonalEdgeStyle;rounded=0;orthogonalLoop=1;jettySize=auto;html=1;exitX=0.5;exitY=1;exitDx=0;exitDy=0;entryX=0.5;entryY=0;entryDx=0;entryDy=0;" edge="1" parent="1" source="NzXf4oYJLNEPJ9zHogkz-1" target="NzXf4oYJLNEPJ9zHogkz-31">
          <mxGeometry relative="1" as="geometry">
            <mxPoint x="-403" y="249" as="targetPoint" />
            <Array as="points">
              <mxPoint x="-413" y="254" />
              <mxPoint x="-728" y="254" />
            </Array>
          </mxGeometry>
        </mxCell>
        <mxCell id="NzXf4oYJLNEPJ9zHogkz-26" style="edgeStyle=orthogonalEdgeStyle;rounded=0;orthogonalLoop=1;jettySize=auto;html=1;exitX=0.75;exitY=1;exitDx=0;exitDy=0;entryX=0.5;entryY=0;entryDx=0;entryDy=0;fontSize=12;" edge="1" parent="1" source="NzXf4oYJLNEPJ9zHogkz-1" target="NzXf4oYJLNEPJ9zHogkz-5">
          <mxGeometry relative="1" as="geometry">
            <Array as="points">
              <mxPoint x="-375" y="151" />
              <mxPoint x="-281" y="151" />
            </Array>
          </mxGeometry>
        </mxCell>
        <mxCell id="NzXf4oYJLNEPJ9zHogkz-1" value="HomePage" style="html=1;fillColor=#f8cecc;strokeColor=#b85450;" vertex="1" parent="1">
          <mxGeometry x="-468" y="92" width="110" height="50" as="geometry" />
        </mxCell>
        <mxCell id="NzXf4oYJLNEPJ9zHogkz-2" value="About Us" style="rounded=0;whiteSpace=wrap;html=1;" vertex="1" parent="1">
          <mxGeometry x="-607" y="63" width="94" height="25" as="geometry" />
        </mxCell>
        <mxCell id="NzXf4oYJLNEPJ9zHogkz-3" value="Career" style="rounded=0;whiteSpace=wrap;html=1;" vertex="1" parent="1">
          <mxGeometry x="-611" y="117" width="94" height="25" as="geometry" />
        </mxCell>
        <mxCell id="NzXf4oYJLNEPJ9zHogkz-27" style="edgeStyle=orthogonalEdgeStyle;rounded=0;orthogonalLoop=1;jettySize=auto;html=1;exitX=0.5;exitY=1;exitDx=0;exitDy=0;fontSize=12;entryX=0.5;entryY=0;entryDx=0;entryDy=0;" edge="1" parent="1" source="NzXf4oYJLNEPJ9zHogkz-5" target="NzXf4oYJLNEPJ9zHogkz-33">
          <mxGeometry relative="1" as="geometry">
            <mxPoint x="-255" y="371" as="targetPoint" />
          </mxGeometry>
        </mxCell>
        <mxCell id="NzXf4oYJLNEPJ9zHogkz-5" value="Partners" style="rounded=0;whiteSpace=wrap;html=1;strokeColor=#6c8ebf;fillColor=#dae8fc;" vertex="1" parent="1">
          <mxGeometry x="-331" y="170.5" width="101" height="32" as="geometry" />
        </mxCell>
        <mxCell id="NzXf4oYJLNEPJ9zHogkz-6" value="Privacy" style="rounded=0;whiteSpace=wrap;html=1;" vertex="1" parent="1">
          <mxGeometry x="-495" y="34" width="94" height="25" as="geometry" />
        </mxCell>
        <mxCell id="NzXf4oYJLNEPJ9zHogkz-7" value="Terms of Use&lt;span style=&quot;color: rgba(0 , 0 , 0 , 0) ; font-family: monospace ; font-size: 0px&quot;&gt;%3CmxGraphModel%3E%3Croot%3E%3CmxCell%20id%3D%220%22%2F%3E%3CmxCell%20id%3D%221%22%20parent%3D%220%22%2F%3E%3CmxCell%20id%3D%222%22%20value%3D%22Privacy%22%20style%3D%22rounded%3D0%3BwhiteSpace%3Dwrap%3Bhtml%3D1%3B%22%20vertex%3D%221%22%20parent%3D%221%22%3E%3CmxGeometry%20x%3D%22-369%22%20y%3D%22-240%22%20width%3D%2294%22%20height%3D%2225%22%20as%3D%22geometry%22%2F%3E%3C%2FmxCell%3E%3C%2Froot%3E%3C%2FmxGraphModel%3E&lt;/span&gt;" style="rounded=0;whiteSpace=wrap;html=1;" vertex="1" parent="1">
          <mxGeometry x="-367" y="41" width="94" height="25" as="geometry" />
        </mxCell>
        <mxCell id="NzXf4oYJLNEPJ9zHogkz-8" value="Affiliated Business" style="rounded=0;whiteSpace=wrap;html=1;" vertex="1" parent="1">
          <mxGeometry x="-273" y="88" width="109" height="35" as="geometry" />
        </mxCell>
        <mxCell id="NzXf4oYJLNEPJ9zHogkz-15" value="Legal" style="rounded=0;whiteSpace=wrap;html=1;" vertex="1" parent="1">
          <mxGeometry x="-611" y="154" width="80" height="29" as="geometry" />
        </mxCell>
        <mxCell id="NzXf4oYJLNEPJ9zHogkz-16" value="Education Abroad" style="rounded=0;whiteSpace=wrap;html=1;" vertex="1" parent="1">
          <mxGeometry x="-607" y="204" width="80" height="29" as="geometry" />
        </mxCell>
        <mxCell id="NzXf4oYJLNEPJ9zHogkz-22" value="&lt;font style=&quot;font-size: 12px&quot;&gt;Client Login&lt;/font&gt;" style="text;strokeColor=none;fillColor=none;html=1;fontSize=24;fontStyle=1;verticalAlign=middle;align=center;rotation=90;" vertex="1" parent="1">
          <mxGeometry x="-421" y="190" width="60" height="12.5" as="geometry" />
        </mxCell>
        <mxCell id="NzXf4oYJLNEPJ9zHogkz-28" value="&lt;font style=&quot;font-size: 12px&quot;&gt;Clubs Login&lt;/font&gt;" style="text;strokeColor=none;fillColor=none;html=1;fontSize=24;fontStyle=1;verticalAlign=middle;align=center;rotation=90;" vertex="1" parent="1">
          <mxGeometry x="-282" y="223" width="38" height="35" as="geometry" />
        </mxCell>
        <mxCell id="NzXf4oYJLNEPJ9zHogkz-29" value="&lt;font style=&quot;font-size: 12px&quot;&gt;Clubs&lt;/font&gt;" style="text;strokeColor=none;fillColor=none;html=1;fontSize=24;fontStyle=1;verticalAlign=middle;align=center;rotation=0;" vertex="1" parent="1">
          <mxGeometry x="-326" y="120" width="38" height="37" as="geometry" />
        </mxCell>
        <mxCell id="NzXf4oYJLNEPJ9zHogkz-57" style="edgeStyle=orthogonalEdgeStyle;rounded=0;orthogonalLoop=1;jettySize=auto;html=1;exitX=0.5;exitY=1;exitDx=0;exitDy=0;fontSize=20;fontColor=#007FFF;entryX=0.5;entryY=0;entryDx=0;entryDy=0;" edge="1" parent="1" source="NzXf4oYJLNEPJ9zHogkz-31" target="NzXf4oYJLNEPJ9zHogkz-40">
          <mxGeometry relative="1" as="geometry">
            <mxPoint x="-728" y="422" as="targetPoint" />
          </mxGeometry>
        </mxCell>
        <mxCell id="NzXf4oYJLNEPJ9zHogkz-31" value="&lt;font style=&quot;font-size: 20px&quot;&gt;Client&lt;/font&gt;" style="shape=offPageConnector;whiteSpace=wrap;html=1;fontSize=24;strokeColor=#000000;size=0.535714830671038;" vertex="1" parent="1">
          <mxGeometry x="-770" y="317.5" width="83" height="56" as="geometry" />
        </mxCell>
        <mxCell id="NzXf4oYJLNEPJ9zHogkz-33" value="&lt;font style=&quot;font-size: 20px&quot;&gt;Clubs&lt;/font&gt;" style="shape=offPageConnector;whiteSpace=wrap;html=1;fontSize=24;strokeColor=#000000;size=0.3035719735281808;" vertex="1" parent="1">
          <mxGeometry x="-322" y="320" width="83" height="56" as="geometry" />
        </mxCell>
        <mxCell id="NzXf4oYJLNEPJ9zHogkz-39" value="&lt;p style=&quot;margin: 0px ; margin-top: 4px ; text-align: center&quot;&gt;&lt;b&gt;Dashboard&lt;/b&gt;&lt;/p&gt;&lt;hr size=&quot;1&quot;&gt;&lt;p style=&quot;margin: 0px ; margin-left: 4px&quot;&gt;Notification&lt;/p&gt;&lt;hr size=&quot;1&quot;&gt;&lt;u&gt;&lt;font color=&quot;#007fff&quot;&gt;Profile&lt;br&gt;&lt;/font&gt;&lt;/u&gt;&lt;hr&gt;&lt;u&gt;&lt;b&gt;Navigation Panel&lt;/b&gt;&lt;br&gt;&lt;font color=&quot;#007fff&quot;&gt;Event Creation&lt;br&gt;Community&lt;br&gt;Members&lt;br&gt;&lt;/font&gt;Inshorts&lt;br&gt;&lt;/u&gt;&lt;hr&gt;&lt;p style=&quot;margin: 0px ; margin-left: 4px&quot;&gt;&lt;b&gt;Feed&lt;/b&gt;&lt;/p&gt;&lt;p style=&quot;margin: 0px ; margin-left: 4px&quot;&gt;&lt;font color=&quot;#007fff&quot;&gt;About Club&lt;/font&gt;&lt;/p&gt;&lt;p style=&quot;margin: 0px ; margin-left: 4px&quot;&gt;&lt;font color=&quot;#007fff&quot;&gt;Post&lt;/font&gt;&lt;/p&gt;&lt;p style=&quot;margin: 0px ; margin-left: 4px&quot;&gt;&lt;font color=&quot;#007fff&quot;&gt;Upcoming Events&lt;/font&gt;&lt;/p&gt;&lt;span style=&quot;color: rgba(0 , 0 , 0 , 0) ; font-family: monospace ; font-size: 0px&quot;&gt;%3CmxGraphModel%3E%3Croot%3E%3CmxCell%20id%3D%220%22%2F%3E%3CmxCell%20id%3D%221%22%20parent%3D%220%22%2F%3E%3CmxCell%20id%3D%222%22%20value%3D%22%26lt%3Bfont%20color%3D%26quot%3B%23007fff%26quot%3B%26gt%3BPopular%20Club%26lt%3B%2Ffont%26gt%3B%22%20style%3D%22rounded%3D0%3BwhiteSpace%3Dwrap%3Bhtml%3D1%3BfontSize%3D20%3BfontColor%3D%23000000%3BstrokeColor%3D%23000000%3BfillColor%3D%23FFFFFF%3B%22%20vertex%3D%221%22%20parent%3D%221%22%3E%3CmxGeometry%20x%3D%22-1091%22%20y%3D%22538%22%20width%3D%22123%22%20height%3D%2235%22%20as%3D%22geometry%22%2F%3E%3C%2FmxCell%3E%3C%2Froot%3E%3C%2FmxGraphModel%3E&lt;/span&gt;&lt;p style=&quot;margin: 0px ; margin-left: 4px&quot;&gt;&lt;br&gt;&lt;/p&gt;" style="verticalAlign=top;align=left;overflow=fill;fontSize=12;fontFamily=Helvetica;html=1;strokeColor=#000000;" vertex="1" parent="1">
          <mxGeometry x="-600" y="612" width="160" height="244" as="geometry" />
        </mxCell>
        <mxCell id="NzXf4oYJLNEPJ9zHogkz-58" style="edgeStyle=orthogonalEdgeStyle;rounded=0;orthogonalLoop=1;jettySize=auto;html=1;exitX=0.25;exitY=0;exitDx=0;exitDy=0;entryX=1;entryY=0.5;entryDx=0;entryDy=0;fontSize=20;fontColor=#007FFF;" edge="1" parent="1" source="NzXf4oYJLNEPJ9zHogkz-40" target="NzXf4oYJLNEPJ9zHogkz-44">
          <mxGeometry relative="1" as="geometry" />
        </mxCell>
        <mxCell id="NzXf4oYJLNEPJ9zHogkz-59" style="edgeStyle=orthogonalEdgeStyle;rounded=0;orthogonalLoop=1;jettySize=auto;html=1;exitX=0;exitY=0.5;exitDx=0;exitDy=0;entryX=1;entryY=0.5;entryDx=0;entryDy=0;fontSize=20;fontColor=#007FFF;" edge="1" parent="1" source="NzXf4oYJLNEPJ9zHogkz-40" target="NzXf4oYJLNEPJ9zHogkz-45">
          <mxGeometry relative="1" as="geometry">
            <Array as="points">
              <mxPoint x="-787" y="448" />
              <mxPoint x="-823" y="448" />
            </Array>
          </mxGeometry>
        </mxCell>
        <mxCell id="NzXf4oYJLNEPJ9zHogkz-60" style="edgeStyle=orthogonalEdgeStyle;rounded=0;orthogonalLoop=1;jettySize=auto;html=1;exitX=0;exitY=0.75;exitDx=0;exitDy=0;fontSize=20;fontColor=#007FFF;" edge="1" parent="1" source="NzXf4oYJLNEPJ9zHogkz-40" target="NzXf4oYJLNEPJ9zHogkz-52">
          <mxGeometry relative="1" as="geometry">
            <Array as="points">
              <mxPoint x="-787" y="481" />
              <mxPoint x="-859" y="481" />
            </Array>
          </mxGeometry>
        </mxCell>
        <mxCell id="NzXf4oYJLNEPJ9zHogkz-61" style="edgeStyle=orthogonalEdgeStyle;rounded=0;orthogonalLoop=1;jettySize=auto;html=1;entryX=0;entryY=0.5;entryDx=0;entryDy=0;fontSize=20;fontColor=#007FFF;exitX=1;exitY=0.5;exitDx=0;exitDy=0;" edge="1" parent="1" source="NzXf4oYJLNEPJ9zHogkz-40" target="NzXf4oYJLNEPJ9zHogkz-42">
          <mxGeometry relative="1" as="geometry">
            <mxPoint x="-674" y="444" as="sourcePoint" />
          </mxGeometry>
        </mxCell>
        <mxCell id="NzXf4oYJLNEPJ9zHogkz-40" value="&lt;font color=&quot;#000000&quot;&gt;DashBoard&lt;/font&gt;" style="shape=ext;double=1;rounded=0;whiteSpace=wrap;html=1;fontSize=20;fontColor=#007FFF;strokeColor=#000000;fillColor=#99CCFF;" vertex="1" parent="1">
          <mxGeometry x="-787" y="429" width="117" height="50" as="geometry" />
        </mxCell>
        <mxCell id="NzXf4oYJLNEPJ9zHogkz-42" value="Notification" style="rounded=0;whiteSpace=wrap;html=1;fontSize=20;fontColor=#000000;strokeColor=#000000;" vertex="1" parent="1">
          <mxGeometry x="-631" y="359" width="120" height="60" as="geometry" />
        </mxCell>
        <mxCell id="NzXf4oYJLNEPJ9zHogkz-44" value="Profile" style="rounded=0;whiteSpace=wrap;html=1;fontSize=20;fontColor=#000000;strokeColor=#000000;fillColor=#FFFFFF;" vertex="1" parent="1">
          <mxGeometry x="-883" y="359" width="77" height="34" as="geometry" />
        </mxCell>
        <mxCell id="NzXf4oYJLNEPJ9zHogkz-62" style="edgeStyle=orthogonalEdgeStyle;rounded=0;orthogonalLoop=1;jettySize=auto;html=1;exitX=0.5;exitY=0;exitDx=0;exitDy=0;entryX=0.75;entryY=1;entryDx=0;entryDy=0;fontSize=20;fontColor=#007FFF;" edge="1" parent="1" source="NzXf4oYJLNEPJ9zHogkz-45" target="NzXf4oYJLNEPJ9zHogkz-46">
          <mxGeometry relative="1" as="geometry" />
        </mxCell>
        <mxCell id="NzXf4oYJLNEPJ9zHogkz-63" style="edgeStyle=orthogonalEdgeStyle;rounded=0;orthogonalLoop=1;jettySize=auto;html=1;exitX=0;exitY=0;exitDx=0;exitDy=0;entryX=1;entryY=0.5;entryDx=0;entryDy=0;fontSize=20;fontColor=#007FFF;" edge="1" parent="1" source="NzXf4oYJLNEPJ9zHogkz-45" target="NzXf4oYJLNEPJ9zHogkz-47">
          <mxGeometry relative="1" as="geometry">
            <Array as="points">
              <mxPoint x="-976" y="398" />
            </Array>
          </mxGeometry>
        </mxCell>
        <mxCell id="NzXf4oYJLNEPJ9zHogkz-64" style="edgeStyle=orthogonalEdgeStyle;rounded=0;orthogonalLoop=1;jettySize=auto;html=1;exitX=0;exitY=0.5;exitDx=0;exitDy=0;entryX=1;entryY=0.5;entryDx=0;entryDy=0;fontSize=20;fontColor=#007FFF;" edge="1" parent="1" source="NzXf4oYJLNEPJ9zHogkz-45" target="NzXf4oYJLNEPJ9zHogkz-48">
          <mxGeometry relative="1" as="geometry" />
        </mxCell>
        <mxCell id="NzXf4oYJLNEPJ9zHogkz-65" style="edgeStyle=orthogonalEdgeStyle;rounded=0;orthogonalLoop=1;jettySize=auto;html=1;exitX=0;exitY=1;exitDx=0;exitDy=0;fontSize=20;fontColor=#007FFF;entryX=1;entryY=0.5;entryDx=0;entryDy=0;" edge="1" parent="1" source="NzXf4oYJLNEPJ9zHogkz-45" target="NzXf4oYJLNEPJ9zHogkz-51">
          <mxGeometry relative="1" as="geometry">
            <mxPoint x="-1024.800048828125" y="495.39996337890625" as="targetPoint" />
          </mxGeometry>
        </mxCell>
        <mxCell id="NzXf4oYJLNEPJ9zHogkz-45" value="Navigation Panel" style="rounded=0;whiteSpace=wrap;html=1;fontSize=20;fontColor=#000000;strokeColor=#000000;fillColor=#FFFFFF;" vertex="1" parent="1">
          <mxGeometry x="-976" y="426" width="116" height="43" as="geometry" />
        </mxCell>
        <mxCell id="NzXf4oYJLNEPJ9zHogkz-46" value="&lt;u&gt;&lt;font color=&quot;#007fff&quot;&gt;Clubs&lt;/font&gt;&lt;/u&gt;" style="rounded=0;whiteSpace=wrap;html=1;fontSize=20;fontColor=#000000;strokeColor=#000000;fillColor=#FFFFFF;" vertex="1" parent="1">
          <mxGeometry x="-996" y="331" width="77" height="34" as="geometry" />
        </mxCell>
        <mxCell id="NzXf4oYJLNEPJ9zHogkz-47" value="&lt;u&gt;&lt;font color=&quot;#007fff&quot;&gt;Community&lt;/font&gt;&lt;/u&gt;" style="rounded=0;whiteSpace=wrap;html=1;fontSize=20;fontColor=#000000;strokeColor=#000000;fillColor=#FFFFFF;" vertex="1" parent="1">
          <mxGeometry x="-1098" y="376" width="107" height="44" as="geometry" />
        </mxCell>
        <mxCell id="NzXf4oYJLNEPJ9zHogkz-48" value="&lt;u&gt;&lt;font color=&quot;#007fff&quot;&gt;Courses&lt;/font&gt;&lt;/u&gt;" style="rounded=0;whiteSpace=wrap;html=1;fontSize=20;fontColor=#000000;strokeColor=#000000;fillColor=#FFFFFF;" vertex="1" parent="1">
          <mxGeometry x="-1145" y="430.5" width="77" height="34" as="geometry" />
        </mxCell>
        <mxCell id="NzXf4oYJLNEPJ9zHogkz-51" value="&lt;u&gt;&lt;font color=&quot;#007fff&quot;&gt;Blogs&lt;/font&gt;&lt;/u&gt;" style="rounded=0;whiteSpace=wrap;html=1;fontSize=20;fontColor=#000000;strokeColor=#000000;fillColor=#FFFFFF;" vertex="1" parent="1">
          <mxGeometry x="-1104" y="479" width="77" height="34" as="geometry" />
        </mxCell>
        <mxCell id="NzXf4oYJLNEPJ9zHogkz-66" style="edgeStyle=orthogonalEdgeStyle;rounded=0;orthogonalLoop=1;jettySize=auto;html=1;exitX=0;exitY=0.25;exitDx=0;exitDy=0;entryX=1;entryY=0.5;entryDx=0;entryDy=0;fontSize=20;fontColor=#007FFF;" edge="1" parent="1" source="NzXf4oYJLNEPJ9zHogkz-52" target="NzXf4oYJLNEPJ9zHogkz-53">
          <mxGeometry relative="1" as="geometry" />
        </mxCell>
        <mxCell id="NzXf4oYJLNEPJ9zHogkz-67" style="edgeStyle=orthogonalEdgeStyle;rounded=0;orthogonalLoop=1;jettySize=auto;html=1;exitX=0;exitY=1;exitDx=0;exitDy=0;entryX=1;entryY=0.75;entryDx=0;entryDy=0;fontSize=20;fontColor=#007FFF;" edge="1" parent="1" source="NzXf4oYJLNEPJ9zHogkz-52" target="NzXf4oYJLNEPJ9zHogkz-54">
          <mxGeometry relative="1" as="geometry">
            <Array as="points">
              <mxPoint x="-910" y="626" />
            </Array>
          </mxGeometry>
        </mxCell>
        <mxCell id="NzXf4oYJLNEPJ9zHogkz-68" style="edgeStyle=orthogonalEdgeStyle;rounded=0;orthogonalLoop=1;jettySize=auto;html=1;exitX=0.5;exitY=1;exitDx=0;exitDy=0;entryX=0.75;entryY=0;entryDx=0;entryDy=0;fontSize=20;fontColor=#007FFF;" edge="1" parent="1" source="NzXf4oYJLNEPJ9zHogkz-52" target="NzXf4oYJLNEPJ9zHogkz-55">
          <mxGeometry relative="1" as="geometry" />
        </mxCell>
        <mxCell id="NzXf4oYJLNEPJ9zHogkz-69" style="edgeStyle=orthogonalEdgeStyle;rounded=0;orthogonalLoop=1;jettySize=auto;html=1;exitX=0.75;exitY=1;exitDx=0;exitDy=0;entryX=0.5;entryY=0;entryDx=0;entryDy=0;fontSize=20;fontColor=#007FFF;" edge="1" parent="1" source="NzXf4oYJLNEPJ9zHogkz-52" target="NzXf4oYJLNEPJ9zHogkz-56">
          <mxGeometry relative="1" as="geometry" />
        </mxCell>
        <mxCell id="NzXf4oYJLNEPJ9zHogkz-52" value="Feed" style="rounded=0;whiteSpace=wrap;html=1;fontSize=20;fontColor=#000000;strokeColor=#000000;fillColor=#FFFFFF;" vertex="1" parent="1">
          <mxGeometry x="-910" y="513" width="101" height="37" as="geometry" />
        </mxCell>
        <mxCell id="NzXf4oYJLNEPJ9zHogkz-53" value="&lt;font color=&quot;#007fff&quot;&gt;Popular Club&lt;/font&gt;" style="rounded=0;whiteSpace=wrap;html=1;fontSize=20;fontColor=#000000;strokeColor=#000000;fillColor=#FFFFFF;" vertex="1" parent="1">
          <mxGeometry x="-1091" y="538" width="123" height="35" as="geometry" />
        </mxCell>
        <mxCell id="NzXf4oYJLNEPJ9zHogkz-54" value="&lt;font color=&quot;#007fff&quot;&gt;Upcoming Events&lt;/font&gt;" style="rounded=0;whiteSpace=wrap;html=1;fontSize=20;fontColor=#000000;strokeColor=#000000;fillColor=#FFFFFF;" vertex="1" parent="1">
          <mxGeometry x="-1053" y="587" width="123" height="52" as="geometry" />
        </mxCell>
        <mxCell id="NzXf4oYJLNEPJ9zHogkz-55" value="&lt;font color=&quot;#007fff&quot;&gt;Club Suggestions&lt;/font&gt;" style="rounded=0;whiteSpace=wrap;html=1;fontSize=20;fontColor=#000000;strokeColor=#000000;fillColor=#FFFFFF;" vertex="1" parent="1">
          <mxGeometry x="-968" y="652" width="125" height="53" as="geometry" />
        </mxCell>
        <mxCell id="NzXf4oYJLNEPJ9zHogkz-56" value="&lt;font color=&quot;#007fff&quot;&gt;Trending Courses&lt;/font&gt;" style="rounded=0;whiteSpace=wrap;html=1;fontSize=20;fontColor=#000000;strokeColor=#000000;fillColor=#FFFFFF;" vertex="1" parent="1">
          <mxGeometry x="-817" y="652" width="123" height="57" as="geometry" />
        </mxCell>
        <mxCell id="NzXf4oYJLNEPJ9zHogkz-70" value="&lt;p style=&quot;margin: 0px ; margin-top: 4px ; text-align: center&quot;&gt;&lt;b&gt;Events&lt;/b&gt;&lt;/p&gt;&lt;hr size=&quot;1&quot;&gt;&lt;p style=&quot;margin: 0px ; margin-left: 4px&quot;&gt;&lt;/p&gt;&lt;u&gt;&lt;font color=&quot;#007fff&quot;&gt;CountDown&lt;br&gt;&lt;/font&gt;&lt;/u&gt;&lt;hr&gt;&lt;p style=&quot;margin: 0px ; margin-left: 4px&quot;&gt;&lt;b&gt;Feed&lt;/b&gt;&lt;/p&gt;&lt;p style=&quot;margin: 0px ; margin-left: 4px&quot;&gt;&lt;font color=&quot;#007fff&quot;&gt;Description&lt;/font&gt;&lt;/p&gt;&lt;p style=&quot;margin: 0px ; margin-left: 4px&quot;&gt;&lt;font color=&quot;#007fff&quot;&gt;Banner Photo&lt;/font&gt;&lt;/p&gt;&lt;hr&gt;Ticket&amp;nbsp;&lt;br&gt;Certificate&lt;br&gt;Stats&lt;br&gt;Feedback&lt;br&gt;&lt;p style=&quot;margin: 0px ; margin-left: 4px&quot;&gt;&lt;/p&gt;&lt;span style=&quot;color: rgba(0 , 0 , 0 , 0) ; font-family: monospace ; font-size: 0px&quot;&gt;%3CmxGraphModel%3E%3Croot%3E%3CmxCell%20id%3D%220%22%2F%3E%3CmxCell%20id%3D%221%22%20parent%3D%220%22%2F%3E%3CmxCell%20id%3D%222%22%20value%3D%22%26lt%3Bfont%20color%3D%26quot%3B%23007fff%26quot%3B%26gt%3BPopular%20Club%26lt%3B%2Ffont%26gt%3B%22%20style%3D%22rounded%3D0%3BwhiteSpace%3Dwrap%3Bhtml%3D1%3BfontSize%3D20%3BfontColor%3D%23000000%3BstrokeColor%3D%23000000%3BfillColor%3D%23FFFFFF%3B%22%20vertex%3D%221%22%20parent%3D%221%22%3E%3CmxGeometry%20x%3D%22-1091%22%20y%3D%22538%22%20width%3D%22123%22%20height%3D%2235%22%20as%3D%22geometry%22%2F%3E%3C%2FmxCell%3E%3C%2Froot%3E%3C%2FmxGraphModel%3EjjT&lt;br&gt;&lt;/span&gt;" style="verticalAlign=top;align=left;overflow=fill;fontSize=12;fontFamily=Helvetica;html=1;strokeColor=#000000;" vertex="1" parent="1">
          <mxGeometry x="-1079" y="836" width="160" height="180" as="geometry" />
        </mxCell>
      </root>
    </mxGraphModel>
  </diagram>
</mxfile>
